<mxfile host="app.diagrams.net" modified="2023-02-04T18:54:56.483Z" agent="5.0 (Windows NT 10.0; Win64; x64) AppleWebKit/537.36 (KHTML, like Gecko) Chrome/109.0.0.0 Safari/537.36" etag="lruZDWyCEoJ10Xbggc5Y" version="20.8.16" type="github" pages="2">
  <diagram id="qR4eR17psWHlq_3odTIr" name="IndexNavBar">
    <mxGraphModel dx="1050" dy="1591" grid="0" gridSize="10" guides="1" tooltips="1" connect="1" arrows="1" fold="1" page="1" pageScale="1" pageWidth="850" pageHeight="1100" math="0" shadow="0">
      <root>
        <mxCell id="0" />
        <object label="Paths" id="wzlDj-jx2lHrXn995t6A-1">
          <mxCell style="locked=1;" parent="0" visible="0" />
        </object>
        <mxCell id="wzlDj-jx2lHrXn995t6A-7" value="company.ejs" style="rounded=1;whiteSpace=wrap;html=1;fillColor=#FFD966;" parent="wzlDj-jx2lHrXn995t6A-1" vertex="1">
          <mxGeometry x="722" y="155" width="88" height="24" as="geometry" />
        </mxCell>
        <mxCell id="wzlDj-jx2lHrXn995t6A-9" value="/customer/listall" style="rounded=1;whiteSpace=wrap;html=1;fillColor=#9AC7BF;" parent="wzlDj-jx2lHrXn995t6A-1" vertex="1">
          <mxGeometry x="445" y="162" width="88" height="24" as="geometry" />
        </mxCell>
        <mxCell id="1" parent="0" />
        <mxCell id="wzlDj-jx2lHrXn995t6A-11" value="" style="whiteSpace=wrap;html=1;aspect=fixed;fillColor=#FFFFFF;" parent="1" vertex="1">
          <mxGeometry x="316" y="151" width="122" height="122" as="geometry" />
        </mxCell>
        <mxCell id="82iz2b-5DrAGKG8m8cqc-1" value="" style="rounded=0;whiteSpace=wrap;html=1;fillColor=#eeeeee;strokeColor=#36393d;" parent="1" vertex="1">
          <mxGeometry x="150" y="110" width="660" height="40" as="geometry" />
        </mxCell>
        <mxCell id="82iz2b-5DrAGKG8m8cqc-2" value="Home" style="text;strokeColor=#36393d;align=center;fillColor=#cce5ff;html=1;verticalAlign=middle;whiteSpace=wrap;rounded=0;" parent="1" vertex="1">
          <mxGeometry x="242" y="115" width="60" height="30" as="geometry" />
        </mxCell>
        <mxCell id="82iz2b-5DrAGKG8m8cqc-3" value="" style="shape=image;verticalLabelPosition=bottom;labelBackgroundColor=default;verticalAlign=top;aspect=fixed;imageAspect=0;image=data:image/png,iVBORw0KGgoAAAANSUhEUgAAA2QAAAEICAYAAAAwQTfAAAAACXBIWXMAAC4jAAAuIwF4pT92AAAAGXRFWHRTb2Z0d2FyZQBBZG9iZSBJbWFnZVJlYWR5ccllPAAAM2pJREFUeNrs3T1y40bawPG2a3LprVoHu4noE4jONiMm3yrRJxAm2Fj0CQSdQJx4g4FOMFSt84GyzYY6galgvcEGK53Abz/DBzYGAogPAmQ38P9VoWRrJApoNLr7QX9986d//ntjjFn8929/WRkAAAAAwMF8a48ze3z87udfE3tMSRIAAAAAOFxAlprZ47MNymJ7nJI0AAAAAHC4gCx1aY+NDcoikgcAAAAA+vPNn/757992/PuTYX4ZAAAAAPTi24p/Z34ZAAAAABwpIEsxvwwAAAAAjhSQpZhfBgAAAAAdqZpDtgvzywAAAADgSAFZ6sEeoQ3MNiQnAAAAANT3bQefIfPLfvnu51+XzC8DAAAAgMMGZKkrs51ftiBZAQAAAKBaF0MWi8j8MhnGmJDEAAAAAFDs254+V/Yv+6T7l01IZgAAAAA4XECWYn4ZAAAAAJToa8hikRd7RP/921+WJPu4/Pmvfw/sl6Dmjyf/+dc/ElINAAAAY/DmgH/rxB63uugH88vGRYKx6wY/T94AAADAKHx7hL/J/DIAAAAAOFJAlmJ+GQAAAAACsiNL9y8LuR0AAAAACMgOT+aXfbBB2doeAbcFAAAAAAHZ4Z2b7fwygjIAAAAABGQAAAAAAAIyAAAAACAgAwAAAAAQkAEAAACAt96QBDiApKefBQAAAAjIgF3+869/JARaAAAAwGsMWQQAAAAAAjIAAAAAICADAAAAABCQAQAAAAABGQAAAACgY6yy6Lk///Xvof0y6enjE10hcfDXb68zIjcBAACAgAxNSUAy6/Hzk5FcPwEZAAAADo4hiwAAAABAQAYAAAAABGQAAAAAAAIyAAAAACAgAwAAAAAQkAEAAAAAARkAAAAAgIAMAAAAAAjIAAAAAAAEZAAAAABAQAYAAAAAICADAAAAAAIyAAAAACAgIwkAAAAAgIBsdL77+dfAHhNSAgAAABinNyTBUQKxU/tlaY9Le7y1x4ZUAQAAAAjI0H8wFtkvC3uckBqdkLQ8JRkAAABAQIZdgdjcbHvFzkiN7vznX/9YkwoAAAAgIENZIDbVQGw2xOv781//HhzpT69tMPZMDgMAAAABGYoCMRlGF9njauCX+ulIf1fm3iXkNAAAgK0///Xv0hEgbdD0a56MLJIX2rzYJiAbfDC20GCMeWIAAADoKwCTKTGBHucNf/dFA7SVHDZA25CiBGRDCMTkYYjNYeeJyd9LevrshLu6syBLC0D4K5/HvX5jaPNkxC3tzcbkVsS1eYUysjwvTuyXkJTwRtprQv725/mS8l6CsX1e/svvzvS4tZ/7aLbTbFb0nhGQ+RiITTQwOvg8MfvAxNyBo5Fg7Jpk8Np1QUWX/udDJmh71gaL6wEb+fGwjaL0P9O3zNkgX75uRvzGeUJ+HGz+9qU8HHIgdtnTn5Aetg8SlMkLPnt/l6Q6AZkPgZiMzV1Q6QCDNMt9TSvEtHEiDZOEt8gwf7xlzuaX60yj9iFtwGojltVh4Xv+LiwPCdJ6DcaiA7Y35Z5Lj1lov4aUWQRkLgdjkkmXhnliwFgbJ3JcZxrcjMHHruB+lmlYpXkm0TxDYweDKA81fz9m8nZCEu0diJ1q/XKM1bqlxyyx57BgRBYBmWuBWKCB2DmpASDX4E7H4McEZ6iZZ661l2GVacTSwwCfnetxlcnbkq9XJE3jYGyq5cIxX/7L3/4g8+btPQy5K/34liSoHYhN7CGNrE8EYwAqGiO39vjFVmCrI+7VB39Ig0fmhMjcjf9pvgn1zTgwhLz90ebnZ3vElIm1gzEJfj4bd0ZiXdpzWlMuEZAdKxA7tUdktmOkL0kRAA1c2OOTrcASGiFomG/S4IwGLIYWnEmZuJFhcDTudwZjHxw8tXQII/eNgOygwViogdi1Ya4YgPZmBGZoiQYshki2B5KRBJKvI/K1F8FYNijb6HBKEJD1GohN7ZHoA3FGigDoODBb0gDBHg3YWJe/BnwnL7vlpff/KBe9CMay9y2mHiMg6ysQO9V5Yp/NcVazATAOV9qwDkgKtGgISa/ZLwRmGGi5GI00GJMeJ5/2/WL4IgFZL8GYFAAbwzwxAIdrWH8aa+MDnSAwwxDLxWsdohuMKBiToCYx/k2PkaCM1TMJyDoJxOb2kECMeWIAjuFaV9XjLSP2CczWzMXBgMgQ3U8jKhtXHrdBZzLclCxLQNY2EJvoPLGPhnliAI5LVtVj6Af2kc7FkcBsTnJgQGXjesi9ZbJYj/F/mswV5Q4BWdNATOaJSST/i2GeGAB3MB4fXZAXjB/pdcXA8vQnDVyGFozJvLHbgVwOi3wQkNUOxuRh3pjtxFEAcDIoIxnQAelZ2PDWGgNyq/Mlh9Tojwd0LdJLz3wyArKdgVhgD9lP7NYwTwyA40GZNDpIBnTUQKK3DEMi8yUHMZJAF3Q6H9j9mQ2xJ5OAbP9ATOaJSbT+aYCZHsCAGx26Hw3QhXQeDhu5Ygi8H96tc+KuB3p/IsoaArI0EDvVZex/0YoIAHyzZClzdOhMG7EE+iAoO24wJuccD/jenAz8+gjIagZjUtlszHDfPAAYByo19JGnPrD3HQjKjkqev6Gv7n3OUvgjDch0nlgilY1hnhiAYZixKAN6cM08RQwoKPNmIQktz8eysNzVmDb3Hn1ApvPEpGKReWIsYw9gaHjLiD5cstgHBmLmwwuGEQxVLEIZM/SALDNPTFZPvORWAhioM+b9oCdsSI6h8GEhJAnGxjaCi6H3Qw7IbCA210Ds2jA8EcDwsYww+sKG5BgKZxdC0qGKY11k7oKXigMLyGwgNtV5Yh/N8CdEAsDvjWZWXETPQRlDY+E7J3tjtOyOR35vWDV4CAGZDk+UzPzZME8MwDjRS4Y+XbLQBwbAxY2JY8NoLrn+FdnT44BM54ltDPPEAIxbQBLgAEEZgT98F7kyBFefJzoSts7ZcsPDgEyXsZdAjHliALCtzJjng77dstUCPCdtxqO/WLDP0dRs9xzDH65ZCr/YG0fPKzYjniOmD7HLDa/Nf/71jw2PD3BwUpEx7AO918FSD1HOw/OGf3zkPBwbOhR2lS/PJIX7AdnYF+yQydUud3HfGH3rYx+ob3iMgIOZEpDhANL5HlOSAh5bmCP1lOnQvHNuQWkbX4JVeuIzviUJAMCrgAw4BBkiy8qL8Fl4jGHeOsrpmuTf6YKh0QRkAOAr5pDhkK6Y7wGPSU9veOBgTMpoRjHUE7MUPgEZAPiIHjIcvNFEEsBj4YH/XmSYdtMkYKZ8ISADAC8rMOCQzliqGh471yGEvdPe5CuSvJEZ5cvWG5IAaC22R0IyeG1itr1OMpZ9CG8133JLexVkvsrQpLFM2l+0WLFuTX701qmWi2n56Hs+D03Pi3swVHEvsiLmypYvawIyAI1p42RDSgymwTnVSvvS4zzJC4J+JQUNsUADNDmGugGs9MxGpsHwL13Smvzor1Uu2JD8Pfe0fAwO8DdiwwiGvfLb2JfCZ8giAGwbkGt7SIPze3s8kiKoGwTbI7KHNPr+zx7v7HE/wEu9ZIGP0ebxZ3usMuXje88u4bzPxSN0tcALcspeZIRKNOYEICA7rhd7sDEe4FbjY2O2b1SfSA20aLjK0L65NlxvtJwfioi7TPloDxlJ8IPx68VVL/PItPcwJmd04mrMS+ETkB3PnT0m//3bX9YkBeBew5rGJzpouErPmTTY3g0kwJ/RSwbN3zKiYKptGR/0lW9laCdDFbsTH2PvOAKycXqwxw82EAvtQe8Y4G6DI3bwtF64M37mJXtM7H/+NIB7uOCOIpO3Q0+Css57yGzgIM/CjFzQqRMz0sVRCMgOR96O/miDsIBeMcAbD46dD2WH343XpdmuXHfn8WVcsJkrCoIy14cvdho46TMQcff7uVca7BKQoVPyNvTGBmEyPJElUQHsg151/xuvz9qA/dH421tGLxnynJ/70/FQOIYq9uv2UPvHEZCNg7wFndpALCIpAHSAHrLhBGbSoJsY93ph6wi5g8jl541xv+e3kwa+bmR8zl3v3ajmkxGQ9UMq2Lc6T2xDcgDoSEISDKoR+6zL5fs2hPFkzKuhoVQ09AvUXptrbvVBnJsRDQslIOuWzBN7p/PEaDgB/nNtyAQ9ZMMMzEKzXSLfJwRkyOfjjXF7NdFgz2DM5yXupXx57+F5X41lZVcCsm4zuwxPjEkKwH9aCbg0R+Bel+PHMBuzkdmuwkhABp8lA742eUZ9HKr4qFtwyNzPRw/PfzWGoYsEZB00kuzxvcwTYxl7YHCVr1OVErdk8EGZrMLoy/BFhi2iyGaIF6Uv6K48Pf0w99++LSYkL0ZjAjKUkbcMMk9szjwxYHCVrxT+Lu0v80JANpqgTBpMviz0EXDHMIL6wOuhirKJd6Z8kf+OPLyOi6Evhf+GR61Vw2jB0ERgkBVvoJWVa5t9ruoMV9TVv1wNNCJyWG3S87Qx7i+rTUCGvCGOFJL23pmH5/1YVO5KT7zWdReeXU9kzzvJBpgEZOMlEyIZmggMKwibaAN47mAg9ntFVPPnXF79i4CsfvD6bPNlaP/zo+Onei69B8xtRMag5vrosNwLT08/rPi3jfFrL7V06OIg9ycjIKtHho+whD3yBXVo2I/HdzMPzvFOVy/DuIIymch+70FjUBpHCXcMQwvIPB+q+NOuniSPXvrkyUugaIgjLgjIdnvSQIzKBkUmnjTo4S8ZIh2RDKO18CAgCwjIkAvQh0KCsRMPz/tBFwjaSV/6yMgv3xYrudahi4Mqd1jUo7wRdGMDsQnBGIAjWtI7Nl56711fdXHKnYLQHiWXX1I+N7gWH16GlLVfwwY/Hxk/l8KPh7YUPgHZa1L5SSAWkRQAjuiRhTBg3O8hnXCLoFzfBqHWYhA6r9jXsjdq8hJP53+GHl6nLLISE5ANk8wT+8EGYiGLdgA4shfDxrswv/eS3Tt8iufcJWhvRTSQy5GG/mCHKhaUMRKo3nh4vRc6D46AbCBkntiPNggL7LEmOQA4IGCoInINRNcb4xg3GeLn9NLwdeYc6dYhPs4NbzpUMZ82ct0PHl73Uns0Ccg89qJvBKY2EGPDVQCueDfUfVbQurHkeh3FPLIR06Xhrx0/zaca1zH14DrKRB28xAu1bewT6ckcRBt+rAHZnQZi7CkGwBVSEf5oK9WYpECBB5IADgZjEsT4UGbVCVZ8LXvv2wxVzNOALvTw+s+1Z5OAzLMK7a3OE9sYAHCDrHIVeNATguNJHD63CbdnlMGYNN4/Gz/mWyUV1yIBjY/zIfcaqlgQlEkddOdhOlzrywECMg8y7DudJ5YYAHDHew3GGKYIAjL4EIhN7CEN9w9DeH7stQTGv724UqGulNglmQ/45GFarHyezzqGjaFlntiSoYkAHCM99gsCMdS0IQlw5EBsqo31S9/OvWxBD23Ax57ekvs+RlVIgKe9n588Sw9ZVEZ6OkMCMscyqhQcDE0E4GDZtKyz4heQaSRtbCOJhMAhA7CJ2S7YEpjtNhxnnl7Krm0jlp5eV6dDFYsCWHv/pUPDt0VOLqX31sfh/0MMyKSbNWRoIgBHy6eNPeixx9Ab81Nt7MJPswFdy6okj0qQeenpNfUxVDEflEWaRr7NrYul/PFt65ghBWTytkBWTaQCAOAqeRMrcxWubIUhQxYjesrQMKD35W3+6cAa9RhQQMZQxdokIJNh9T5tlH2i9zYgIDu89xqM8db5SL77+VcXG5WxzRMxdweOksbqJw3MmEuGOjbG32FjwLGCl6K2YexZkJHqdahing6Vjux/3vpWv9rzXnSxHQABWT3SkGEJe3cal65JuC3w5Nn5bCuPLy+W+h6GAq+xATPQTJz/hi5YceHp9cwPXUdIUKMrUfqWZrf2vBNfXnb6uuy9DNv4UZexJxgDMAQylDHxfS8V9MrVN/q8RICTbcX80D5dqMTXqS3vjzjEXYLYFx8Dcl+WwvctIJPMcGODsIk92EAVwNCcE5TBQwy3hYuioga68XOo4lPJ9RyE9srNPa1TIx9O1KeATHYOl0AsMgAwXNJY+KzDaoAvCNKBZgGMDSLi3DMke6j5utBMeOzh7No7997DtLvS1SKd5sMcsi8T3m0gNpo3cDbTB5SlwOh9sJXIs4/7qaAXE4fPjSGLcM0iF4zJC41bT6/lvSur8drzWOh8Mh+Xwp+4PEfb5R4y6Z59p/PEGA4BYIxiekagnM0HrBAKxzwUvMiKPb2Wow5VLBF6mI4y8sTpl5uuBmTSJTplyXIAIyeVSOLLpGT0ytUhN0/cGjjk1bLwumz7uafXE7rWq6MvYH7yMC1nOmyVgKyBFXuKAcDvQRnDFkdMA3JXG5Qb7hAcIluHbDLPTmC/XHt6LTeuDFUsCMpkpcoHH/OHq6NOvuXZBQDnOf1mD71zeUI6wxXhiofsRsD6IiP29Foe7bVEHpRLvi2Ff+JqniAgAwA/RAxdHC2Xg3ECMrjgybx+cSEBzZmn1xO6foI6lDL0MG3PbV3q3F50BGQA4Ad5s7ckGcbFgxXNCMhwbNJLM8/OtdJlzq88vZ4bXxbK0cVT7jxM4ystWwnIAACNXcrSvSTDqEQuN4RZYREOmGfzIUMVD0568H1c3Gfl0qiTNzzHwCDdeFioH4xO6k0L4sBs93iSN6onHpx+6HgjHd3lU8mbLm9km3CXcGTvCha+iD0py/NerRDpA+mZ1B7Jz56dejqfzIk5ugRkAEYn91Y/yTSA5xrsuDxEjIBsPFwfokpAhmMHY3H2G1qGX3h6PZGvPc5y3jbtb4x/K1pe2PMO8/noGBiyCAB/VCore0jvmctj4s/YLHr4PNk7ie0YcAzSk/S2IBibGH+HKn61QqSn9aeUWY8envrShakABGQA8LpiCR0PyubcpUEHYxJwu/6m+TG73xNwIDJXKSjZn0uCMV+HKg6lTPd1Kfyjv1wiIAOAYguHK5aA2zPYYOzU+NHzRO8YDk02Ip4WDevTfRpnnl5XmF0h0mf6ksbHPTPPdVQCARkAOFaxSAUZO3p6M+7QYIOxxPixd1LMHcMB/WTL5KAocNEe5cjT67rXpeOHVHdK2XDv4alfH3MpfAIyACjnbEXJPLLBBmPnHpwuwxVxsLxmjx8q5ldJAMCqim6R6/JxKfz4WEvhE5ABQDmXG52n3B6CsSNhg3IcIliRXrHprpUHPVn8psx8KEMV8/S6fAw2z45VvhGQAUB5peJyQBZwhwYRjE08C8akocz8MfRJFlSaVK066MniN2XelyxMMqT6U67vvYenfqnbJxCQAYAjjWWGBaLP/CVB9dr49YZ/OdS3+nAiEPteVrmtymMeLX5TRIbyRWO4ofY+ygIfPi6FHx96KXw2hgaAchOSAD0EYqfaILvy8PQZrog+ArGo4YgEeX7OPL3ecGQvNUKzHQXg0zw/OdfYHHAkCj1kAFDO5b1hCBb9DMakcbL2NBi7o3cMHZFeoht7/J/2iG0aPEOBp8+PGPxQxTydAxh5eOqzQy6FTw8ZABRX+qcEZOgwP0le8nmvpBczkmFW6DUPyTDDVdul3j0fqvg41mdI5gNqGehb+SdL4a92LSxDQAYA/YqNn0spw72gXhphZ55fzpKl7rFHEJZoILZvD6vP5XI48h5mKQs3Ht6/lcwn7/veEZABwOuGtFT6F46f5po75Wz+mWvjYz6QoF4a1cwdQ12PmQAs6fi5uvA0TX46RC+LyySg0SHbHz07dXmZFpntCAcCMgA4UENaCl4fVr1jLo87+SawX2RFzsDjBuMuC+aOoYTMBVvrkfQ1P0p7m2NP0+ihagn/EQVl0tskS+H7Ngfwyp530naoLQEZAJRX8NKAPtWGdNqYPiNlsCOviIkeU/16PvDLl8ZkTC4YNenxkoB8kz0OvDiFNIR97G2W3uU5Wegrkda3vpWdX5bC7+vlFAEZMEwyEfWaZIBDQc1vpIKXFgO8pjsNKrDt2SpqYK5d6RW1ZYfPi+FIGkqvkPH4GvKkV7T1nKrM0MXPnl33ib4YCAjIAACphCRAz24GOu8lHtvS477SzXkjjy/hzAxv5IVcjwzBDNt+gJQr9t7Ktge+vTiWpfAXfQxBZR8yAACQ92gbHRHJgCPzdaji0F1qL1drWr48eHjttzqMnYAMAMaON/zoEfNecHS6Ke85KeGspfZg7iPU8sY3MQEZAOCRJECPQvYcw5GDMemBYB6029I5Va1pORN6eO3nNo92OmyRgAwA/MMeZOjL+z6XdgZqBGM+L3E/NnsHJlre3Ht47Ve65QkBGQCMVEISoAf3tnG0IBlwZJFhqOLYApPQbFdv9M1KXyAQkAEAARmwt0fj59AhDIg27K9IiXEFJrqEvo/ljwzbjAnIAGB8npjfg67zlD0CV/adwmiDMYYq+quL+WSJ/XLj4bVf6F55BGQAMCLM70GXvqyoSDAGB8hcpDOSwVuzfQMTXQrfx0Wron2XwicgAwD/Gi1AV8FYMNDNn+ER25iVbRYuSQnvdbFH19z4txT+3kMXCcgAwB8PDFcEwRgGFowxVHFY9p1PJnVc5OF1n+veeQRkADBwNFrQBRkSNCUYg0Pl2gnJMBgy7HTfpfDl931cCv+67YqTBGQA4Ekj2lZSBGToIhgL6GmFC3TO0QUpMTiX9t6Ge36G/P6Lh9cet+khJCADAD+wPxT2dWdYTRHuBGMT4+fQNNSz1HvcipZTcw+vW3oIYwIyABiee10SGGjrJ5uHQoIxOEQarQxVHK6ulsJ/7+G1XzTtISQgAwC3yZCNkGTAHvnnrc7JAJygix/MSInB22uhCyW/7+NS+I16CAnIAMBtDDFDWzIpfkLvKhwLxmRZ9GtSYjRaL3QhtP4LPbzuRkvhE5ABgLvesRIeWpBeMRmiyIbPcFFMEozOvkvhSz34k4fXPavbQ0hABgDuBmM0XNDUg9kuac8QRTjHNk4lX56TEqOz98bJWqY9eHjt13U2yyYgAwCCMfjvyR4/2nzDkvZwNRgL7JcrUmK0LnSbg33Iqos+LoVf2UNIQAYABGPwlzRObsy2V2xFcsDRYEwao5RruK3TW1TG4/lklZtlE5ABgDsN6x8IxtCA7Csmi3ZEzBWD4yJtlALxnvPJVlr2+UY2y54TkAGAu9LV8FjAA3UDse/ZVww+0EYoQxWRkjmE+85xlaGPT54GoxMCMgBwSzrvh9XwUCUdmpgGYhuSBB4EYwxVRJGdvUVVtL6ce3jdpYubEJABwPEa18z7QZ2g/Z35Y2gigRh8EmsjFHiVN5psnFwQlK21HvXNrGhxkzfkBwA4aONaGihLesRQEbBLoB6zqTN8ZRudof1yQUqgxImWc/ss8hFpT5tvWynI4iZJdpoCARkA9O9BG9cxSYEd7rWBsiJgh+fB2MTsP08Iw3cuGydLYLXHZ0hAtjb+9cRKD2GQlvUEZADQj0ez7Q1bMcwMJdKeMDkSgjAMSGwYqoh6rrW3KGnzy1K/6hDAD74Fo2a7+uiCgAwAum1cJ5nGNUEYyvJIonmEVTUxONo4npESaEA2Tp60fSklo0906KJvQ2SvNBhdEZABQLuG9Tp70LgGeQQEY182/b0lJdBQuvrgPisnhvbYGD+HLk4IyADgNRlumL6pW+t/b/RYM7QMZrtAy4Y8AnzduCQJ0NKF9K7asrPV3EMpc7WX7JOPwSgBGbBfxZOQDH4b2Cp2b7mj5BNHrB3Oj/RU9kD3HFuQEtjDXi+ypJy2+fAH+5+nvl34N3/6579/c7FR8d+//YXKzyPf/fyri/noxuajiLsDAAAAV7ExNAAAAAAQkAEAAAAAARkAAAAAgIAMAAAAAAjIAAAAAAAEZAAAAABAQNangFvjj+9+/pX7BQAAALTg6sbQ17aRH9qvIfuROR2ITewX2VH9gtQAdj4nk+z3KNd+T5upyW3gSdpgR36RvDLNfXtt88yzh+e9see94a6C5/rVS/1RPhuubgyddW+PBQWXc5XLQgJnx0+1142hbTpEHaTB75ugF3zevf23ec1zyT7HD/b3ghq/E9svl5lv3dnfCzu+7gcpXO2R2M+OdxTGn5qef8HnSDrOitK25N9/tP++anG9lRvX6wulecXLikd7yN+P+yzfWtwvadzK9a2qziu/Ibz9+W9qlB1p2swq0ibWtHlu+vcL7nWnZYj9fEmXs8y33pXl7yZ5tOdyu5O6viyNq+592zTQFxoLzTNnJT/2lMkvmwbPQq06ok0Zpb8jeT3Ycd4vmTIg6eo5q0rrvp+Plg3yT/t8bsFn9HI9BX9H7uGkzkuBBs/gk9aba607Vz0/21/l5xb5I3u+qxr1Y1oPyHFe8Wws7eetu6qb65QDVc97i7xW2Q4SPswhkwbNL5KAehNx3GAs1Ix1TWr0n/dtei96DKovc9++1MZPl2b6dz7Yz15rj4gr4q6v137eXBvrH0x1z/G5Pkfrvu5zy/sl532r5e6y48Bwo589q5E28nMbSVPHysCiwGBh0HkZpfnvF3tc7QhqjP5b+ixFRz7vqTZoP2nZt+u8T/RnPtnfWdHG8UJYcA/Djv/GmZaRku8/Sp3iWN2563w/6cve0udDA7fbHcFY9tn43GU9dMR6NdsOOvU1IEtda+UcUh4cpZIJtJL5oA8KDuO2p4J4UbOy6ZIUvi41OiQfrzp8RiRNP1Y0wMrO49bRSudqVwXSIG1iLcNPWqTNR8eCsqJn55y5tN0GY2bbS3vVIr/IlIfkGOWMltWJadf7dKG/C3fz5cS8fpG5qz7tMuD57FH797KoPss8103ryKsBBGXZdlBh+fTGsws50QhTMv+CuQYHK4CikkIIX7sz2x6AJur8vAQx047nSZQV7Asp+Br+rYcdDYkg1zg50++tHLln53q9iz2fE0nP25I8EeeGTk40/Re5AEUqndUByrVd90vObZ47L6lAYv1+22AsX37IcBSpYFfZ4SjaoA0LGuJfejMb5Mu4QZ7c9dwmBeVhWWM7Mm4vSHWz49+uG/zsISTm9dvzh/S+psMS9X4EmvbZRt5snzy7ZzB2UnDeSz3v50zDNNDvn+XKo6jPofZ9Ph+OeWhxflU/X1ZPnEkdUGfYcoPnbF7wDHzpYSkbwrfH81vVDvnJbHu1zI48E+bystRnce5cl7nn40Wf3ST9OX2mp5rWs4rP8yWv5Z+pc20DBT4HZNmLkW5RKSgi5pf1Urmk88QWhh6x2pVcT43psy4bFxo8ZAvOp8z/n+g9b9IgSHY1IPQFym2uolk5dN+utJKLW6bnRCuaLJkDFRZVHlpeRRqoxLmC+hCN+qr7darXkw2iZPjsvM6cu9xnBQXB2L2mzXNB2qz1pUCseaRVvtx1L3VI26zlc5v/+9lnZ6YvTlxsMJiKe35d92cPUPdEBQ3Rn+w5LUuepVgD9mUukL9o2Uhuq6ixGRY9M5r35furgvNu81KsaV7o6/lwSdJlPs7Meyp69tOyIe7qmdQ6ItB8cpILpqd7fG4b64o8kGg+3uTOdZ4L5PJtmEU+L+ozvdFnQ649O/Q/NG4OD09qzD2Uf8+Ws1JfnGafc9/3IZOKfs38ss4rxPQhajPECP3ocj5ZmPv/ecW/71v5Lyv+nguWewwNjXLPiVTUQVXDXCuefFrPepjH1/R+PeviLvcVwUibAEYmR8+rGpuadmGf+bJlg+wyd5/z18dcsv3TOJ+G74qCsYI8I79310GebXPegXndc1rrBYae90PmWyeOlpFjlx85sMyVkWddD63WICjIfdvJ4dFapucD0nyd+tULixovSxYVn+cNDdhedl3PEDaGPjF/TOYNKTP2qlTSycht5sGgew+5/997Ppn+/izXQF7nGjJnXT5LBQFG4kj6PubKkbjli51XAW3dt9salL3PnM97h/JfWNAQmOyR116aNDS1MfKQeRbiI6dHvnGw1AbFU+Z7l8cOqAfW6H1o2MO1yDV6zg40/zCfN24a9ipFmSC/zdB39C8f3K8KyqTOX8ho/fy+omx2Rb7+3Oxo05xUvWTW+vFBjxsH6oB97WwXvBnQwyIBxAdtSC5cHTbiaCBWNEQJblQAUa5Ru+98snwBGGe+Xub+dtxB3grM6+F8rgxXDM3Xcz7O9VzDhteXbUA+thje8+U+u7aXkpyPvT55A5wdMjJt0FjMN4RXLa4xdGhIeliSj+U5uc7dz9CgjWCfskLzrNyPq9xn9l3mXJSUq7VfPtjz/p7pF862kQLz9Uvq+3Ronf23/LDloIchnvk8PXUwjeYFZf6m4HnOtmduNShbaV28zj8DbbbAcTQPheZ1R8fzUAOylNzszzq/bOH6hpEOZJLIME+sKzLsrUl+q/PiYG6+Hpfdej5ZwQpRT+nbZ20QPJo/5m6cNZgzdJ2fg7LDoysBmaS9VgYfMt+WHo6kwVv5fGWRtDgPl8uodUFAVvf+TfcNxF1poBZUpneZc1vmAjLJQ6Orezra52xSkP+aWh2y8VowauGxTb5t8jtd7Sk3cGHDoX3xjnL/Ve947r9vcz/baUCmdVX2W+cV+SNp+PnBnmlZtADJS8GLCXk2o1x780yf1ys99yd97uUakoadK59y6eRSQJ/PQ0/5a3sz4IdRGp5znRwbUTYVZpDYMDSxS+cNf75yeJy+8ZXCLrsJ4YU2+JouAxvmK6CCSuZDrmLpMniSAjpwqaEqFXDBwhPLmitZFXmuaNRPanxGMpAVZE8bpE3dMjo+UpBW+uzoM3qXy0NNF8bB1iz3fCYDy+dS1tQJEjYHXIxkqM4atm+SknsmZfZFriGd5MqCbJBxoSvCblx5jjpqT+9d10uaZNqe5xX37SIToEWOPw9lAevpjut8VT+8GfgDme5JIpVpyDL5vxcucQ8PLPoLGqT3SsZPZ9/C32pPTpOgYddbvjQ4ya4U1vXwC/ncja585tIqi5Iu00zBmc4nC3rYaqDucze2suq6QboctKFTMBeuaFhqnA/I+l4pD14KauZ1F+ZMorjhnK83n3U1wPyQ/3Ck6XWvAdS6pD0j359qu3yuz8RJRWD9QV9Mh46WqU2D/7uiAPPNSDKIJJR0ZT4Yt+YkHLJRcaqFxJVBX5pOxq79s9LLW7CSV1J3byYt/PIrAS4Kuvc35us3OpGpfqO7aw+Oaa7ATTf6fevKC5JML+Ta7DGfDIOVf5HxXNKj95LL56F5PX9yyN7W/LmlKX9r/NVS4vllodFpWg9d033IkpJ2U356wKRGj/6l7id3rLZm1/sIylSD51y9flJQ/tV+2aoBSazpHGTaCtOS4OZC2yO7FgKp2i8tFZrjrJmws7fvzcgeUGnM/mJv/nvj4CT6HoOxdPgM88T61fd+Lfn5ZPJ1ZeoNgVkUvKSo86Z2VmP4RdW+VhM9z/Pc+SSu3DgdSiGF9MdcpVp1jpuCALRMWUVx6nCjadr2JYJeb/YFQrDjnj+UfH9ijjisumDeZVqPzGo+c6MJyOqWfRXzbDe5+x2Y5sOm98mzbawL8seu63vY0T45ZFoPXRf7kIUF7aarBr8bdXEhBfMUnyryR9RxWi7yeU7ry2WuPZKOLFlXlavZNoV+dpKWl1ruhub1+gZXOvKg7Jle13k2etg2oCr4X5uCBUvGHpBlH6hQ32AMtsLMrHA31jdkQ2vwFM0nm1W9rdN8sE8eiMwePUUa7ES5YOfCwfRd6cuabIW7rCho8/92UfZWX/cbKrs/nxwsP04Lgv0mQ2TXdRsoZZPKCzbTPLRwj989O/DGxINoROcCkzabyM935MO2qy+flj33Wi7ne/YK73u2V6Agr7NQh3v2Wca+y2HL8z3K4b7qSwm+0sU3skFZ4cgdfbmZPtsvZscceg1cIp1CsS54SeNamdrJJuTfjvhBk4wj83DWLm6yt2dDaqJjmj8RjA0uKJNCLT8coarBmm9U3utnlB35PU+62Fsp8SR9pQLO7092UVFxPOa+PZSXPJHJDXNtOGdxZV7vCeXbxsmv9peqOLrYTHvM4oKyp/YqiSUbNGc/M984rlv3Bw3PO2q5pyHcaUfNc4HAU43n/ylXdyw6OI9JQR3vzErFBcHiSY3zO6mz12nJZtOToea5Nzx2XwKWT7rfzsLn+WVaASzMcd8oo/9CMCppeJQV5tkhV+k47+caDZv8EMN9KpeioNBV+flkdQKX/FDHTYM3ZoGDZYmkwdU+gab2HOSXhJeXYM8Neo2mR0yD0LzepDiq8bxd5ILQgAWlaueZTcGKlSvdgqNqGFTRlgx32bJOF0jK/vusqhdT69V8+ZUUPBvZ4VXSkE/qLgzUJOjE0V7GVK70p0NEb3P1XrRHGXRaEJA8udTrXrLo2ExHoGWvPT+EfaELk1W1ufP142D3GP6WZ+53UonK/DIv32xp42FNMDYac/N170PdSqXu5rz5xnfY5rmQhoY2ym8rGjRONQpNg6FqOok5H2DK6q5J2VtASUv5NwncXHlm9ZzmOrTkY0EjoE3Pn/xOvgdRVsxaadBXGNRoObwxxx3aWraJelXeuSsI2FFflCvb0uBmsSPfRubroVNGP6Pod+4L8uOu4cT5z80ve56+yc9/hrzQkgBzUTbCQJ83KT8+c9udak9NcsHDi6nXKxWb16MCwhZ/f6p5emNev3h1bpSBBl4PBXVgsKNNIc/HekcdOckNc0zvQzKgfJZkD3rIXrvWyH3hw9h/zfCRYRl7F7TZlPChzU702vsQ7KrIS97sLmt+fn4J/HT4RVHjssnG0EYb6LuerVmD+RQ3fewzWDKfbJdQK4psr+JMr+WD+XqVqonZvVBF328Am96vJ9NiI/JMPg0LGrUSaF3o85KtyHelzYs50JL3BT3ELw3qA3luLnP5uayXrHaZYX//mzEUopm9ipJc+XOrjdR15hmZltR9u/Y8jAoC/exnm8xnn9QI1LNlZpC791/OWz//KZd/Z0csA5xvhzUoo8pW7G1azmWfs3ydEtd5kanlXZyrNyLT3bzB93VWMWw5H3HflY9D83pkiTwTU0kXfa7zdeqJvhD5ULMeGNpWIl+VAfSQFUszSeLq/DJ9eyAP+SeCsXHSITw/7fiRea5wfGw4B2hZpyHSUK0hk46kb34+2c6K2GyHVrwv+ZFz88fqfGUBh1RIPzi2R5tc/7TlJtnZfDoxu1eXq0ob6XU65GarizYvMjLX+1DQWEGzNAzM69XkTjSfXOkxK3mBEFTsg/SupN7P5sWTkhdAqx3nHepnF41eOMt9ftnLjx/LFgDCQdpWp+b1yqpNRgfkf/asbDRAQ+9czhclI0vOssGonv9dy3rgro+Xry4hIKuOXuUNZtzBogZdFhiRvom45BaNvuEihX/ZfKxoj0ql6OdP2gy/yDQ0ftJGtU9vf+sODTX6FlAqnLc7Kp2yYEPeTgYOpc2jNgCmXQTPmjaBps1Dg+Bd0uZ7aegeKogvmAdmTPNVvfI/f+lSHeJRUCa9VDemYpnvbBljf6+yjNHezh8a5MVHfUajGucd6wuIm7plR+Z5mzj2QmaM8kHPQ5MXQfqz9xWfWVe2DIw9eGZXBXXfRbbdoC8tmtQD6UuKcOgZ7402kqSQYY+qchL4zHUI19G6TPUty9IccV8ej7w3/a92JwVksudnPO/4vLqN89B8vfjBc+b7psXn/d6ItnlOGi2nuc9OGl73pqJCW5v6G52++uxcpXe643rz/16rctUJ95O66ZjuqaLzUtLNLk8z92idpuOBFntolE8bntPbhukpnx1kltRP0zZN30TTZl3zPN52kB7rgmcy+7nPTXvmdPjapqSx5+Ic5Tbp2PZaqp7Tr8ogbZ+kCxnln6Uk8yw1Ld/Wmhcn+rkT/dzTDj47e97ZMiDIlFsbU3N/oj3Kx9pp3UE9tI996oB1B59hCuq4ojqmSbov97yPmwblztuO7sE++Sb7u/GOdk62Hsg+e0X1QNWz1zavxhX3OJ+Xniv+fdMyzb+6b9/89ttvaRetFB5XBnWi9cUh32JpgS4PN0MTqz3o/VmTFAAAAHDdl4CMhr+bDX8NlPMTxOFIoAwAAAB0GpBlAgGGxtV3p4FAp8MYdbhTZBhKWkXGWC+HPtkTAAAAIwrIMkGBNHIXBAW1goKo5T49+TQPzHZ8K8HwkYJhAAAAwImATAMEhs3VJ8PmwjYT9XVyowRiDBet9qABcEJSAAAAYNABWSZgCAwbEDcJGMI6K+SwoErjgDfyYflXAAAAoNOALBNAhBpAMKSu2nsNIJ53pKX0PjIktJrs6bJkeCIAAABGHZBpICG9OjK37JokrCTzyxbZXh3tbZRA7JzkqXSv6bchKQAAAEBA9nVgNtHA4oKkrPRotj2LIelVO70WzBMDAAAAAVl1YBYYenzQjVc9igAAAAABWb3ALDTMiUJ7O+fcAQAAAARk1UEZqwaiqdqrUgIAAAAEZPUCs4lhXy3s1nrfNgAAAICArF5gFmhgxjL5SMk8MRmauCQpAAAAQEB2ADYwk2XyI8P8srG7M9tFO5gnBgAAAAKyQwVkGpTJ/DLpFbkk6UfnQQOxNUkBAAAAHCEgywRmUw3MmF82fE8aiK1ICgAAAMCBgCwTmM01MGN+2fC86L1dMjwRAAAAcDAgywRmkf0ic8yYXzYMMk8sYhl7AAAAwIOATIOyidku+sH8Mn89aCCWkBQAAACARwFZJjALNDBjfpk/ZHiizBOLSQoAAADA44AsE5iFZjsHiWGMbrsxzBMDAAAAhhWQaVAmy+TL3LJrbpVz7s22V2xDUgAAAAADDMgygdnEbHvLLrhlR/eogVhCUgAAAAAjCMgygVmggdk5t+7gZJ6YLNixJCkAAACAEQZkmcBMhjFGhvllh/JegzHmiQEAAABjD8g0KDvVoOyK29gbWcY+ZJ4YAAAAQEBWFphN7JfYsEx+l540EEtICgAAAICArE5gFmhgdsZtbU3mickS9hFJAQAAABCQtQnMJJiQOWbML2vmzmxXT2SeGAAAAEBAtldQJvPLZDXAS25xpQcNxNYkBQAAAEBA1mVgNtXAjPllr8k8MVk5MSYpAAAAAAKyPgOzuQZmzC/TeWJmO1eM4YkAAAAAAdlBgjIZxrgw455fJvPEIpaxBwAAAAjIjhWYTcx2/7IxzS97NNt5YglZHgAAACAgcyEwC8x26N75gC/zRQOxmKwOAAAAEJC5GJiFGpgNbRjjjWGeGAAAAEBA5kFQls4vux7A5dybba/YhuwNAAAAEJD5FJhNzLa37MLD05dl7EPmiQEAAAAEZL4HZoH9Ehs/lsmXeWKycuKSOwcAAAAQkA0pMJNhjJFxd37Zew3GmCcGAAAAEJANMig71aDsyqHTejDb4Ykb7hAAAABAQDaGwGxitsMYZ0c8DZknJgt2rLgjAAAAAAHZGAOzudku/HHI+WUyT0yWsI+4AwAAAAABGYHZz79KcCRzzPqeX3Zntr1izBMDAAAACMiQCcpkfpn0ll328PEyTyxiGXsAAACAgAy7A7OpBmZdzC970kAsJmUBAAAAAjLUD8xCs12Rsc38shcN6pYMTwQAAAAIyNAuKJNhjAvTbH7ZvdnOE9uQggAAAAABGfYPzCZm2+N1sePHHjUQS0gxAAAAgIAM3QdmgQZm55lvv2ggFpNCAAAAAAEZ+g/MQg3MmCcGAAAA4Iv/F2AAot6sZXXahwwAAAAASUVORK5CYII=;" parent="1" vertex="1">
          <mxGeometry x="154.09" y="118" width="78.91" height="24" as="geometry" />
        </mxCell>
        <mxCell id="82iz2b-5DrAGKG8m8cqc-4" value="About" style="text;strokeColor=#36393d;align=center;fillColor=#cce5ff;html=1;verticalAlign=middle;whiteSpace=wrap;rounded=0;" parent="1" vertex="1">
          <mxGeometry x="560" y="121" width="60" height="30" as="geometry" />
        </mxCell>
        <mxCell id="82iz2b-5DrAGKG8m8cqc-5" value="" style="whiteSpace=wrap;html=1;aspect=fixed;fillColor=#FFFFFF;" parent="1" vertex="1">
          <mxGeometry x="560" y="151" width="140" height="140" as="geometry" />
        </mxCell>
        <mxCell id="wzlDj-jx2lHrXn995t6A-8" value="" style="edgeStyle=none;rounded=0;orthogonalLoop=1;jettySize=auto;html=1;" parent="1" source="82iz2b-5DrAGKG8m8cqc-6" target="wzlDj-jx2lHrXn995t6A-7" edge="1">
          <mxGeometry relative="1" as="geometry" />
        </mxCell>
        <mxCell id="82iz2b-5DrAGKG8m8cqc-6" value="About our Company" style="text;strokeColor=none;align=left;fillColor=none;html=1;verticalAlign=middle;whiteSpace=wrap;rounded=0;" parent="1" vertex="1">
          <mxGeometry x="562.5" y="151" width="113.5" height="30" as="geometry" />
        </mxCell>
        <mxCell id="82iz2b-5DrAGKG8m8cqc-7" value="Contact Us" style="text;strokeColor=none;align=left;fillColor=none;html=1;verticalAlign=middle;whiteSpace=wrap;rounded=0;" parent="1" vertex="1">
          <mxGeometry x="563.5" y="174" width="90" height="30" as="geometry" />
        </mxCell>
        <mxCell id="82iz2b-5DrAGKG8m8cqc-8" value="Locations" style="text;strokeColor=none;align=left;fillColor=none;html=1;verticalAlign=middle;whiteSpace=wrap;rounded=0;" parent="1" vertex="1">
          <mxGeometry x="567" y="200" width="60" height="30" as="geometry" />
        </mxCell>
        <mxCell id="82iz2b-5DrAGKG8m8cqc-9" value="Web Pages Names" style="shape=table;startSize=30;container=1;collapsible=0;childLayout=tableLayout;fillColor=#ffcc99;strokeColor=#36393d;" parent="1" vertex="1">
          <mxGeometry x="32" y="370" width="420" height="270" as="geometry" />
        </mxCell>
        <mxCell id="82iz2b-5DrAGKG8m8cqc-10" value="" style="shape=tableRow;horizontal=0;startSize=0;swimlaneHead=0;swimlaneBody=0;top=0;left=0;bottom=0;right=0;collapsible=0;dropTarget=0;fillColor=none;points=[[0,0.5],[1,0.5]];portConstraint=eastwest;" parent="82iz2b-5DrAGKG8m8cqc-9" vertex="1">
          <mxGeometry y="30" width="420" height="40" as="geometry" />
        </mxCell>
        <mxCell id="82iz2b-5DrAGKG8m8cqc-11" value="Page/Tab" style="shape=partialRectangle;html=1;whiteSpace=wrap;connectable=0;overflow=hidden;fillColor=#ffcc99;top=0;left=0;bottom=0;right=0;pointerEvents=1;strokeColor=#36393d;" parent="82iz2b-5DrAGKG8m8cqc-10" vertex="1">
          <mxGeometry width="105" height="40" as="geometry">
            <mxRectangle width="105" height="40" as="alternateBounds" />
          </mxGeometry>
        </mxCell>
        <mxCell id="82iz2b-5DrAGKG8m8cqc-12" value="Technical Name" style="shape=partialRectangle;html=1;whiteSpace=wrap;connectable=0;overflow=hidden;fillColor=#ffcc99;top=0;left=0;bottom=0;right=0;pointerEvents=1;strokeColor=#36393d;" parent="82iz2b-5DrAGKG8m8cqc-10" vertex="1">
          <mxGeometry x="105" width="105" height="40" as="geometry">
            <mxRectangle width="105" height="40" as="alternateBounds" />
          </mxGeometry>
        </mxCell>
        <mxCell id="p7XVDdlolLC74N_89_h9-11" value="Via path name" style="shape=partialRectangle;html=1;whiteSpace=wrap;connectable=0;overflow=hidden;fillColor=#ffcc99;top=0;left=0;bottom=0;right=0;pointerEvents=1;strokeColor=#36393d;" vertex="1" parent="82iz2b-5DrAGKG8m8cqc-10">
          <mxGeometry x="210" width="105" height="40" as="geometry">
            <mxRectangle width="105" height="40" as="alternateBounds" />
          </mxGeometry>
        </mxCell>
        <mxCell id="p7XVDdlolLC74N_89_h9-5" value="Via route" style="shape=partialRectangle;html=1;whiteSpace=wrap;connectable=0;overflow=hidden;fillColor=#ffcc99;top=0;left=0;bottom=0;right=0;pointerEvents=1;strokeColor=#36393d;" vertex="1" parent="82iz2b-5DrAGKG8m8cqc-10">
          <mxGeometry x="315" width="105" height="40" as="geometry">
            <mxRectangle width="105" height="40" as="alternateBounds" />
          </mxGeometry>
        </mxCell>
        <mxCell id="82iz2b-5DrAGKG8m8cqc-13" value="" style="shape=tableRow;horizontal=0;startSize=0;swimlaneHead=0;swimlaneBody=0;top=0;left=0;bottom=0;right=0;collapsible=0;dropTarget=0;fillColor=none;points=[[0,0.5],[1,0.5]];portConstraint=eastwest;" parent="82iz2b-5DrAGKG8m8cqc-9" vertex="1">
          <mxGeometry y="70" width="420" height="40" as="geometry" />
        </mxCell>
        <mxCell id="82iz2b-5DrAGKG8m8cqc-14" value="Home" style="shape=partialRectangle;html=1;whiteSpace=wrap;connectable=0;overflow=hidden;fillColor=none;top=0;left=0;bottom=0;right=0;pointerEvents=1;align=center;" parent="82iz2b-5DrAGKG8m8cqc-13" vertex="1">
          <mxGeometry width="105" height="40" as="geometry">
            <mxRectangle width="105" height="40" as="alternateBounds" />
          </mxGeometry>
        </mxCell>
        <mxCell id="82iz2b-5DrAGKG8m8cqc-15" value="Index.ejs" style="shape=partialRectangle;html=1;whiteSpace=wrap;connectable=0;overflow=hidden;fillColor=none;top=0;left=0;bottom=0;right=0;pointerEvents=1;" parent="82iz2b-5DrAGKG8m8cqc-13" vertex="1">
          <mxGeometry x="105" width="105" height="40" as="geometry">
            <mxRectangle width="105" height="40" as="alternateBounds" />
          </mxGeometry>
        </mxCell>
        <mxCell id="p7XVDdlolLC74N_89_h9-12" value="/index or /" style="shape=partialRectangle;html=1;whiteSpace=wrap;connectable=0;overflow=hidden;fillColor=none;top=0;left=0;bottom=0;right=0;pointerEvents=1;" vertex="1" parent="82iz2b-5DrAGKG8m8cqc-13">
          <mxGeometry x="210" width="105" height="40" as="geometry">
            <mxRectangle width="105" height="40" as="alternateBounds" />
          </mxGeometry>
        </mxCell>
        <mxCell id="p7XVDdlolLC74N_89_h9-6" value="index.js" style="shape=partialRectangle;html=1;whiteSpace=wrap;connectable=0;overflow=hidden;fillColor=none;top=0;left=0;bottom=0;right=0;pointerEvents=1;" vertex="1" parent="82iz2b-5DrAGKG8m8cqc-13">
          <mxGeometry x="315" width="105" height="40" as="geometry">
            <mxRectangle width="105" height="40" as="alternateBounds" />
          </mxGeometry>
        </mxCell>
        <mxCell id="82iz2b-5DrAGKG8m8cqc-16" value="" style="shape=tableRow;horizontal=0;startSize=0;swimlaneHead=0;swimlaneBody=0;top=0;left=0;bottom=0;right=0;collapsible=0;dropTarget=0;fillColor=none;points=[[0,0.5],[1,0.5]];portConstraint=eastwest;" parent="82iz2b-5DrAGKG8m8cqc-9" vertex="1">
          <mxGeometry y="110" width="420" height="40" as="geometry" />
        </mxCell>
        <mxCell id="82iz2b-5DrAGKG8m8cqc-17" value="About Our Company" style="shape=partialRectangle;html=1;whiteSpace=wrap;connectable=0;overflow=hidden;fillColor=none;top=0;left=0;bottom=0;right=0;pointerEvents=1;" parent="82iz2b-5DrAGKG8m8cqc-16" vertex="1">
          <mxGeometry width="105" height="40" as="geometry">
            <mxRectangle width="105" height="40" as="alternateBounds" />
          </mxGeometry>
        </mxCell>
        <mxCell id="82iz2b-5DrAGKG8m8cqc-18" value="company.ejs" style="shape=partialRectangle;html=1;whiteSpace=wrap;connectable=0;overflow=hidden;fillColor=none;top=0;left=0;bottom=0;right=0;pointerEvents=1;" parent="82iz2b-5DrAGKG8m8cqc-16" vertex="1">
          <mxGeometry x="105" width="105" height="40" as="geometry">
            <mxRectangle width="105" height="40" as="alternateBounds" />
          </mxGeometry>
        </mxCell>
        <mxCell id="p7XVDdlolLC74N_89_h9-13" value="/company" style="shape=partialRectangle;html=1;whiteSpace=wrap;connectable=0;overflow=hidden;fillColor=none;top=0;left=0;bottom=0;right=0;pointerEvents=1;" vertex="1" parent="82iz2b-5DrAGKG8m8cqc-16">
          <mxGeometry x="210" width="105" height="40" as="geometry">
            <mxRectangle width="105" height="40" as="alternateBounds" />
          </mxGeometry>
        </mxCell>
        <mxCell id="p7XVDdlolLC74N_89_h9-7" value="company.js" style="shape=partialRectangle;html=1;whiteSpace=wrap;connectable=0;overflow=hidden;fillColor=none;top=0;left=0;bottom=0;right=0;pointerEvents=1;" vertex="1" parent="82iz2b-5DrAGKG8m8cqc-16">
          <mxGeometry x="315" width="105" height="40" as="geometry">
            <mxRectangle width="105" height="40" as="alternateBounds" />
          </mxGeometry>
        </mxCell>
        <mxCell id="82iz2b-5DrAGKG8m8cqc-19" value="" style="shape=tableRow;horizontal=0;startSize=0;swimlaneHead=0;swimlaneBody=0;top=0;left=0;bottom=0;right=0;collapsible=0;dropTarget=0;fillColor=none;points=[[0,0.5],[1,0.5]];portConstraint=eastwest;" parent="82iz2b-5DrAGKG8m8cqc-9" vertex="1">
          <mxGeometry y="150" width="420" height="40" as="geometry" />
        </mxCell>
        <mxCell id="82iz2b-5DrAGKG8m8cqc-20" value="Contact Us" style="shape=partialRectangle;html=1;whiteSpace=wrap;connectable=0;overflow=hidden;fillColor=none;top=0;left=0;bottom=0;right=0;pointerEvents=1;" parent="82iz2b-5DrAGKG8m8cqc-19" vertex="1">
          <mxGeometry width="105" height="40" as="geometry">
            <mxRectangle width="105" height="40" as="alternateBounds" />
          </mxGeometry>
        </mxCell>
        <mxCell id="82iz2b-5DrAGKG8m8cqc-21" value="Contact.ejs" style="shape=partialRectangle;html=1;whiteSpace=wrap;connectable=0;overflow=hidden;fillColor=none;top=0;left=0;bottom=0;right=0;pointerEvents=1;" parent="82iz2b-5DrAGKG8m8cqc-19" vertex="1">
          <mxGeometry x="105" width="105" height="40" as="geometry">
            <mxRectangle width="105" height="40" as="alternateBounds" />
          </mxGeometry>
        </mxCell>
        <mxCell id="p7XVDdlolLC74N_89_h9-14" value="/contact" style="shape=partialRectangle;html=1;whiteSpace=wrap;connectable=0;overflow=hidden;fillColor=none;top=0;left=0;bottom=0;right=0;pointerEvents=1;" vertex="1" parent="82iz2b-5DrAGKG8m8cqc-19">
          <mxGeometry x="210" width="105" height="40" as="geometry">
            <mxRectangle width="105" height="40" as="alternateBounds" />
          </mxGeometry>
        </mxCell>
        <mxCell id="p7XVDdlolLC74N_89_h9-8" value="contact.js" style="shape=partialRectangle;html=1;whiteSpace=wrap;connectable=0;overflow=hidden;fillColor=none;top=0;left=0;bottom=0;right=0;pointerEvents=1;" vertex="1" parent="82iz2b-5DrAGKG8m8cqc-19">
          <mxGeometry x="315" width="105" height="40" as="geometry">
            <mxRectangle width="105" height="40" as="alternateBounds" />
          </mxGeometry>
        </mxCell>
        <mxCell id="82iz2b-5DrAGKG8m8cqc-37" style="shape=tableRow;horizontal=0;startSize=0;swimlaneHead=0;swimlaneBody=0;top=0;left=0;bottom=0;right=0;collapsible=0;dropTarget=0;fillColor=none;points=[[0,0.5],[1,0.5]];portConstraint=eastwest;" parent="82iz2b-5DrAGKG8m8cqc-9" vertex="1">
          <mxGeometry y="190" width="420" height="40" as="geometry" />
        </mxCell>
        <mxCell id="82iz2b-5DrAGKG8m8cqc-38" value="Locations" style="shape=partialRectangle;html=1;whiteSpace=wrap;connectable=0;overflow=hidden;fillColor=none;top=0;left=0;bottom=0;right=0;pointerEvents=1;" parent="82iz2b-5DrAGKG8m8cqc-37" vertex="1">
          <mxGeometry width="105" height="40" as="geometry">
            <mxRectangle width="105" height="40" as="alternateBounds" />
          </mxGeometry>
        </mxCell>
        <mxCell id="82iz2b-5DrAGKG8m8cqc-39" value="Locations.ejs" style="shape=partialRectangle;html=1;whiteSpace=wrap;connectable=0;overflow=hidden;fillColor=none;top=0;left=0;bottom=0;right=0;pointerEvents=1;" parent="82iz2b-5DrAGKG8m8cqc-37" vertex="1">
          <mxGeometry x="105" width="105" height="40" as="geometry">
            <mxRectangle width="105" height="40" as="alternateBounds" />
          </mxGeometry>
        </mxCell>
        <mxCell id="p7XVDdlolLC74N_89_h9-15" value="/location" style="shape=partialRectangle;html=1;whiteSpace=wrap;connectable=0;overflow=hidden;fillColor=none;top=0;left=0;bottom=0;right=0;pointerEvents=1;" vertex="1" parent="82iz2b-5DrAGKG8m8cqc-37">
          <mxGeometry x="210" width="105" height="40" as="geometry">
            <mxRectangle width="105" height="40" as="alternateBounds" />
          </mxGeometry>
        </mxCell>
        <mxCell id="p7XVDdlolLC74N_89_h9-9" value="location.js" style="shape=partialRectangle;html=1;whiteSpace=wrap;connectable=0;overflow=hidden;fillColor=none;top=0;left=0;bottom=0;right=0;pointerEvents=1;" vertex="1" parent="82iz2b-5DrAGKG8m8cqc-37">
          <mxGeometry x="315" width="105" height="40" as="geometry">
            <mxRectangle width="105" height="40" as="alternateBounds" />
          </mxGeometry>
        </mxCell>
        <mxCell id="kJujCXHhvIufY0oQnnJ3-6" style="shape=tableRow;horizontal=0;startSize=0;swimlaneHead=0;swimlaneBody=0;top=0;left=0;bottom=0;right=0;collapsible=0;dropTarget=0;fillColor=none;points=[[0,0.5],[1,0.5]];portConstraint=eastwest;" parent="82iz2b-5DrAGKG8m8cqc-9" vertex="1">
          <mxGeometry y="230" width="420" height="40" as="geometry" />
        </mxCell>
        <mxCell id="kJujCXHhvIufY0oQnnJ3-7" value="Register" style="shape=partialRectangle;html=1;whiteSpace=wrap;connectable=0;overflow=hidden;fillColor=none;top=0;left=0;bottom=0;right=0;pointerEvents=1;" parent="kJujCXHhvIufY0oQnnJ3-6" vertex="1">
          <mxGeometry width="105" height="40" as="geometry">
            <mxRectangle width="105" height="40" as="alternateBounds" />
          </mxGeometry>
        </mxCell>
        <mxCell id="kJujCXHhvIufY0oQnnJ3-8" value="Register.ejs" style="shape=partialRectangle;html=1;whiteSpace=wrap;connectable=0;overflow=hidden;fillColor=none;top=0;left=0;bottom=0;right=0;pointerEvents=1;" parent="kJujCXHhvIufY0oQnnJ3-6" vertex="1">
          <mxGeometry x="105" width="105" height="40" as="geometry">
            <mxRectangle width="105" height="40" as="alternateBounds" />
          </mxGeometry>
        </mxCell>
        <mxCell id="p7XVDdlolLC74N_89_h9-16" value="/register" style="shape=partialRectangle;html=1;whiteSpace=wrap;connectable=0;overflow=hidden;fillColor=none;top=0;left=0;bottom=0;right=0;pointerEvents=1;" vertex="1" parent="kJujCXHhvIufY0oQnnJ3-6">
          <mxGeometry x="210" width="105" height="40" as="geometry">
            <mxRectangle width="105" height="40" as="alternateBounds" />
          </mxGeometry>
        </mxCell>
        <mxCell id="p7XVDdlolLC74N_89_h9-10" value="register.js" style="shape=partialRectangle;html=1;whiteSpace=wrap;connectable=0;overflow=hidden;fillColor=none;top=0;left=0;bottom=0;right=0;pointerEvents=1;" vertex="1" parent="kJujCXHhvIufY0oQnnJ3-6">
          <mxGeometry x="315" width="105" height="40" as="geometry">
            <mxRectangle width="105" height="40" as="alternateBounds" />
          </mxGeometry>
        </mxCell>
        <mxCell id="p7XVDdlolLC74N_89_h9-20" value="" style="endArrow=classic;html=1;rounded=0;fontColor=#00FF00;exitX=0.849;exitY=1.095;exitDx=0;exitDy=0;exitPerimeter=0;entryX=0.37;entryY=0.895;entryDx=0;entryDy=0;entryPerimeter=0;" edge="1" parent="82iz2b-5DrAGKG8m8cqc-9" source="kJujCXHhvIufY0oQnnJ3-6" target="kJujCXHhvIufY0oQnnJ3-6">
          <mxGeometry width="50" height="50" relative="1" as="geometry">
            <mxPoint x="203" y="288" as="sourcePoint" />
            <mxPoint x="109" y="370" as="targetPoint" />
          </mxGeometry>
        </mxCell>
        <mxCell id="82iz2b-5DrAGKG8m8cqc-40" value="&lt;font style=&quot;font-size: 20px;&quot;&gt;Sample Navigational Bar&lt;/font&gt;" style="text;strokeColor=none;align=center;fillColor=none;html=1;verticalAlign=middle;whiteSpace=wrap;rounded=0;" parent="1" vertex="1">
          <mxGeometry x="220" y="30" width="360" height="30" as="geometry" />
        </mxCell>
        <mxCell id="82iz2b-5DrAGKG8m8cqc-41" value="&lt;font style=&quot;font-size: 12px;&quot;&gt;Author: Len Davis&lt;br&gt;January 25,2023&lt;br&gt;Last Revision: 2/4/2023&lt;br&gt;&lt;/font&gt;" style="text;strokeColor=none;align=left;fillColor=none;html=1;verticalAlign=middle;whiteSpace=wrap;rounded=0;fontSize=20;" parent="1" vertex="1">
          <mxGeometry x="10" y="20" width="210" height="30" as="geometry" />
        </mxCell>
        <mxCell id="wzlDj-jx2lHrXn995t6A-10" value="" style="edgeStyle=none;rounded=0;orthogonalLoop=1;jettySize=auto;html=1;entryX=0;entryY=0.5;entryDx=0;entryDy=0;exitX=1;exitY=0.5;exitDx=0;exitDy=0;" parent="1" source="wzlDj-jx2lHrXn995t6A-12" target="wzlDj-jx2lHrXn995t6A-9" edge="1">
          <mxGeometry relative="1" as="geometry">
            <mxPoint x="327" y="252.9967120954003" as="sourcePoint" />
            <mxPoint x="373" y="253.3101703577513" as="targetPoint" />
          </mxGeometry>
        </mxCell>
        <mxCell id="wzlDj-jx2lHrXn995t6A-12" value="List All" style="text;strokeColor=none;align=left;fillColor=none;html=1;verticalAlign=middle;whiteSpace=wrap;rounded=0;" parent="1" vertex="1">
          <mxGeometry x="319" y="159" width="58" height="30" as="geometry" />
        </mxCell>
        <mxCell id="wzlDj-jx2lHrXn995t6A-13" value="Customer" style="text;strokeColor=#36393d;align=center;fillColor=#cce5ff;html=1;verticalAlign=middle;whiteSpace=wrap;rounded=0;" parent="1" vertex="1">
          <mxGeometry x="314" y="120" width="60" height="30" as="geometry" />
        </mxCell>
        <mxCell id="kJujCXHhvIufY0oQnnJ3-2" value="Register" style="rounded=0;whiteSpace=wrap;html=1;fillColor=#dae8fc;strokeColor=#6c8ebf;" parent="1" vertex="1">
          <mxGeometry x="645" y="123" width="56" height="26" as="geometry" />
        </mxCell>
        <mxCell id="kJujCXHhvIufY0oQnnJ3-3" value="Employee" style="rounded=0;whiteSpace=wrap;html=1;fillColor=#dae8fc;strokeColor=#6c8ebf;" parent="1" vertex="1">
          <mxGeometry x="453" y="123" width="77" height="27" as="geometry" />
        </mxCell>
        <mxCell id="kJujCXHhvIufY0oQnnJ3-4" value="Login" style="rounded=0;whiteSpace=wrap;html=1;fillColor=#dae8fc;strokeColor=#6c8ebf;" parent="1" vertex="1">
          <mxGeometry x="730" y="121.5" width="80" height="29" as="geometry" />
        </mxCell>
        <mxCell id="kJujCXHhvIufY0oQnnJ3-5" style="edgeStyle=orthogonalEdgeStyle;rounded=0;orthogonalLoop=1;jettySize=auto;html=1;exitX=0.5;exitY=0;exitDx=0;exitDy=0;entryX=0.355;entryY=0.041;entryDx=0;entryDy=0;entryPerimeter=0;" parent="1" source="kJujCXHhvIufY0oQnnJ3-4" target="kJujCXHhvIufY0oQnnJ3-4" edge="1">
          <mxGeometry relative="1" as="geometry" />
        </mxCell>
        <mxCell id="kJujCXHhvIufY0oQnnJ3-9" value="" style="rounded=0;whiteSpace=wrap;html=1;align=left;" parent="1" vertex="1">
          <mxGeometry x="454" y="150" width="76" height="129" as="geometry" />
        </mxCell>
        <mxCell id="kJujCXHhvIufY0oQnnJ3-10" value="List All" style="text;html=1;strokeColor=none;fillColor=none;align=center;verticalAlign=middle;whiteSpace=wrap;rounded=0;" parent="1" vertex="1">
          <mxGeometry x="454" y="154" width="60" height="30" as="geometry" />
        </mxCell>
        <mxCell id="p7XVDdlolLC74N_89_h9-1" value="Routing" parent="0" />
        <mxCell id="p7XVDdlolLC74N_89_h9-3" value="/public/images/logo.jpg" style="rounded=1;whiteSpace=wrap;html=1;fillColor=#fff2cc;strokeColor=#d6b656;" vertex="1" parent="p7XVDdlolLC74N_89_h9-1">
          <mxGeometry x="8" y="185" width="152" height="60" as="geometry" />
        </mxCell>
        <mxCell id="p7XVDdlolLC74N_89_h9-4" style="edgeStyle=orthogonalEdgeStyle;rounded=0;orthogonalLoop=1;jettySize=auto;html=1;exitX=0;exitY=0.5;exitDx=0;exitDy=0;entryX=1;entryY=0.25;entryDx=0;entryDy=0;fontColor=#00FF00;" edge="1" parent="p7XVDdlolLC74N_89_h9-1" source="82iz2b-5DrAGKG8m8cqc-3" target="p7XVDdlolLC74N_89_h9-3">
          <mxGeometry relative="1" as="geometry" />
        </mxCell>
        <mxCell id="p7XVDdlolLC74N_89_h9-17" value="" style="endArrow=classic;html=1;rounded=0;fontColor=#00FF00;exitX=0.5;exitY=1;exitDx=0;exitDy=0;" edge="1" parent="p7XVDdlolLC74N_89_h9-1" source="kJujCXHhvIufY0oQnnJ3-2" target="kJujCXHhvIufY0oQnnJ3-6">
          <mxGeometry width="50" height="50" relative="1" as="geometry">
            <mxPoint x="399" y="400" as="sourcePoint" />
            <mxPoint x="449" y="350" as="targetPoint" />
          </mxGeometry>
        </mxCell>
        <mxCell id="p7XVDdlolLC74N_89_h9-19" value="" style="endArrow=classic;html=1;rounded=0;fontColor=#00FF00;" edge="1" parent="p7XVDdlolLC74N_89_h9-1">
          <mxGeometry width="50" height="50" relative="1" as="geometry">
            <mxPoint x="318" y="620" as="sourcePoint" />
            <mxPoint x="390" y="618" as="targetPoint" />
          </mxGeometry>
        </mxCell>
      </root>
    </mxGraphModel>
  </diagram>
  <diagram id="MWwMiNVYTsJiRxeCy8OQ" name="Registration">
    <mxGraphModel dx="1050" dy="491" grid="1" gridSize="10" guides="1" tooltips="1" connect="1" arrows="1" fold="1" page="1" pageScale="1" pageWidth="850" pageHeight="1100" math="0" shadow="0">
      <root>
        <mxCell id="0" />
        <mxCell id="1" parent="0" />
        <mxCell id="kDvf7MNimvzM7-Z8UJZ8-1" value="Registration Page&lt;br&gt;Created 2/4/23&lt;br&gt;" style="text;html=1;strokeColor=none;fillColor=none;align=center;verticalAlign=middle;whiteSpace=wrap;rounded=0;" parent="1" vertex="1">
          <mxGeometry x="20" y="10" width="150" height="30" as="geometry" />
        </mxCell>
        <mxCell id="5olddvMwaPmpN4CdsvyI-1" value="IndexNavBar (/partials/navbar.ejs)" style="rounded=0;whiteSpace=wrap;html=1;fillColor=#d5e8d4;strokeColor=#82b366;" parent="1" vertex="1">
          <mxGeometry x="70" y="80" width="750" height="80" as="geometry" />
        </mxCell>
        <mxCell id="NtMksIk7Ne774pOVK3xy-2" value="&lt;h1&gt;Employee Registration&lt;/h1&gt;" style="text;html=1;strokeColor=none;fillColor=none;spacing=5;spacingTop=-20;whiteSpace=wrap;overflow=hidden;rounded=0;" vertex="1" parent="1">
          <mxGeometry x="70" y="190" width="440" height="50" as="geometry" />
        </mxCell>
        <mxCell id="NtMksIk7Ne774pOVK3xy-3" value="First Name:" style="text;html=1;strokeColor=none;fillColor=none;align=center;verticalAlign=middle;whiteSpace=wrap;rounded=0;" vertex="1" parent="1">
          <mxGeometry x="80" y="250" width="90" height="30" as="geometry" />
        </mxCell>
        <mxCell id="NtMksIk7Ne774pOVK3xy-4" value="" style="rounded=1;whiteSpace=wrap;html=1;" vertex="1" parent="1">
          <mxGeometry x="160" y="250" width="120" height="30" as="geometry" />
        </mxCell>
        <mxCell id="NtMksIk7Ne774pOVK3xy-5" value="Last Name:" style="text;html=1;strokeColor=none;fillColor=none;align=center;verticalAlign=middle;whiteSpace=wrap;rounded=0;" vertex="1" parent="1">
          <mxGeometry x="370" y="250" width="90" height="30" as="geometry" />
        </mxCell>
        <mxCell id="NtMksIk7Ne774pOVK3xy-6" value="" style="rounded=1;whiteSpace=wrap;html=1;" vertex="1" parent="1">
          <mxGeometry x="450" y="250" width="120" height="30" as="geometry" />
        </mxCell>
        <mxCell id="NtMksIk7Ne774pOVK3xy-7" value="Email Address:" style="text;html=1;strokeColor=none;fillColor=none;align=center;verticalAlign=middle;whiteSpace=wrap;rounded=0;" vertex="1" parent="1">
          <mxGeometry x="90" y="290" width="90" height="30" as="geometry" />
        </mxCell>
        <mxCell id="NtMksIk7Ne774pOVK3xy-8" value="" style="rounded=1;whiteSpace=wrap;html=1;" vertex="1" parent="1">
          <mxGeometry x="190" y="290" width="260" height="30" as="geometry" />
        </mxCell>
        <mxCell id="NtMksIk7Ne774pOVK3xy-9" value="Username:" style="text;html=1;strokeColor=none;fillColor=none;align=center;verticalAlign=middle;whiteSpace=wrap;rounded=0;" vertex="1" parent="1">
          <mxGeometry x="80" y="370" width="90" height="30" as="geometry" />
        </mxCell>
        <mxCell id="NtMksIk7Ne774pOVK3xy-10" value="" style="rounded=1;whiteSpace=wrap;html=1;" vertex="1" parent="1">
          <mxGeometry x="160" y="370" width="120" height="30" as="geometry" />
        </mxCell>
        <mxCell id="NtMksIk7Ne774pOVK3xy-11" value="Password (min. 6 characters)" style="text;html=1;strokeColor=none;fillColor=none;align=center;verticalAlign=middle;whiteSpace=wrap;rounded=0;" vertex="1" parent="1">
          <mxGeometry x="390" y="370" width="200" height="30" as="geometry" />
        </mxCell>
        <mxCell id="NtMksIk7Ne774pOVK3xy-12" value="" style="rounded=1;whiteSpace=wrap;html=1;" vertex="1" parent="1">
          <mxGeometry x="570" y="370" width="120" height="30" as="geometry" />
        </mxCell>
        <mxCell id="NtMksIk7Ne774pOVK3xy-14" value="Page: register.ejs" style="text;html=1;strokeColor=none;fillColor=none;align=center;verticalAlign=middle;whiteSpace=wrap;rounded=0;" vertex="1" parent="1">
          <mxGeometry x="330" y="30" width="200" height="30" as="geometry" />
        </mxCell>
        <mxCell id="NtMksIk7Ne774pOVK3xy-21" value="Role:" style="text;html=1;strokeColor=none;fillColor=none;align=center;verticalAlign=middle;whiteSpace=wrap;rounded=0;fontColor=#000000;" vertex="1" parent="1">
          <mxGeometry x="80" y="330" width="60" height="30" as="geometry" />
        </mxCell>
        <mxCell id="NtMksIk7Ne774pOVK3xy-22" value="" style="ellipse;whiteSpace=wrap;html=1;aspect=fixed;fontColor=#000000;" vertex="1" parent="1">
          <mxGeometry x="140" y="335" width="20" height="20" as="geometry" />
        </mxCell>
        <mxCell id="NtMksIk7Ne774pOVK3xy-24" value="User" style="text;html=1;strokeColor=none;fillColor=none;align=center;verticalAlign=middle;whiteSpace=wrap;rounded=0;fontColor=#000000;" vertex="1" parent="1">
          <mxGeometry x="160" y="330" width="60" height="30" as="geometry" />
        </mxCell>
        <mxCell id="NtMksIk7Ne774pOVK3xy-25" value="" style="ellipse;whiteSpace=wrap;html=1;aspect=fixed;fontColor=#000000;" vertex="1" parent="1">
          <mxGeometry x="260" y="335" width="20" height="20" as="geometry" />
        </mxCell>
        <mxCell id="NtMksIk7Ne774pOVK3xy-26" value="Admin" style="text;html=1;strokeColor=none;fillColor=none;align=center;verticalAlign=middle;whiteSpace=wrap;rounded=0;fontColor=#000000;" vertex="1" parent="1">
          <mxGeometry x="280" y="330" width="60" height="30" as="geometry" />
        </mxCell>
        <mxCell id="NtMksIk7Ne774pOVK3xy-27" value="Submit" style="rounded=0;whiteSpace=wrap;html=1;fillColor=#dae8fc;strokeColor=#6c8ebf;" vertex="1" parent="1">
          <mxGeometry x="90" y="410" width="70" height="30" as="geometry" />
        </mxCell>
        <mxCell id="NtMksIk7Ne774pOVK3xy-34" style="edgeStyle=orthogonalEdgeStyle;rounded=0;orthogonalLoop=1;jettySize=auto;html=1;exitX=0.5;exitY=1;exitDx=0;exitDy=0;entryX=0.5;entryY=0;entryDx=0;entryDy=0;fontColor=#00FF00;" edge="1" parent="1" target="NtMksIk7Ne774pOVK3xy-33">
          <mxGeometry relative="1" as="geometry">
            <mxPoint x="545" y="500" as="sourcePoint" />
          </mxGeometry>
        </mxCell>
        <mxCell id="NtMksIk7Ne774pOVK3xy-35" value="Register New Employee--Browser name here" style="rounded=0;whiteSpace=wrap;html=1;fillColor=#e1d5e7;strokeColor=#9673a6;" vertex="1" parent="1">
          <mxGeometry x="70" y="50" width="750" height="30" as="geometry" />
        </mxCell>
        <mxCell id="NtMksIk7Ne774pOVK3xy-36" value="Labels" style="locked=1;" parent="0" />
        <mxCell id="NtMksIk7Ne774pOVK3xy-38" value="&lt;font color=&quot;#ff3333&quot;&gt;* Required&lt;/font&gt;" style="text;html=1;strokeColor=none;fillColor=none;align=center;verticalAlign=middle;whiteSpace=wrap;rounded=0;" vertex="1" parent="NtMksIk7Ne774pOVK3xy-36">
          <mxGeometry x="580" y="250" width="60" height="30" as="geometry" />
        </mxCell>
        <mxCell id="NtMksIk7Ne774pOVK3xy-39" value="&lt;font color=&quot;#ff3333&quot;&gt;* Required&lt;/font&gt;" style="text;html=1;strokeColor=none;fillColor=none;align=center;verticalAlign=middle;whiteSpace=wrap;rounded=0;" vertex="1" parent="NtMksIk7Ne774pOVK3xy-36">
          <mxGeometry x="300" y="250" width="60" height="30" as="geometry" />
        </mxCell>
        <mxCell id="NtMksIk7Ne774pOVK3xy-40" value="&lt;font color=&quot;#ff3333&quot;&gt;* Required/Must be at least six characters&lt;/font&gt;" style="text;html=1;strokeColor=none;fillColor=none;align=center;verticalAlign=middle;whiteSpace=wrap;rounded=0;" vertex="1" parent="NtMksIk7Ne774pOVK3xy-36">
          <mxGeometry x="700" y="370" width="140" height="30" as="geometry" />
        </mxCell>
        <mxCell id="NtMksIk7Ne774pOVK3xy-41" value="&lt;font color=&quot;#ff3333&quot;&gt;* Required/Username Already Exists&lt;/font&gt;" style="text;html=1;strokeColor=none;fillColor=none;align=center;verticalAlign=middle;whiteSpace=wrap;rounded=0;" vertex="1" parent="NtMksIk7Ne774pOVK3xy-36">
          <mxGeometry x="310" y="360" width="80" height="30" as="geometry" />
        </mxCell>
        <mxCell id="NtMksIk7Ne774pOVK3xy-42" value="&lt;font color=&quot;#ff3333&quot;&gt;* Required&lt;/font&gt;" style="text;html=1;strokeColor=none;fillColor=none;align=center;verticalAlign=middle;whiteSpace=wrap;rounded=0;" vertex="1" parent="NtMksIk7Ne774pOVK3xy-36">
          <mxGeometry x="480" y="300" width="60" height="30" as="geometry" />
        </mxCell>
        <mxCell id="NtMksIk7Ne774pOVK3xy-43" value="&lt;font color=&quot;#00ff00&quot;&gt;*Successfully Registered&lt;/font&gt;" style="text;html=1;strokeColor=none;fillColor=none;align=center;verticalAlign=middle;whiteSpace=wrap;rounded=0;fontColor=#000000;" vertex="1" parent="NtMksIk7Ne774pOVK3xy-36">
          <mxGeometry x="30" y="220" width="270" height="30" as="geometry" />
        </mxCell>
        <mxCell id="NtMksIk7Ne774pOVK3xy-37" value="SubmitPath" parent="0" />
        <mxCell id="NtMksIk7Ne774pOVK3xy-44" value="Path:&lt;br&gt;/register/registeremployee" style="rounded=0;whiteSpace=wrap;html=1;fillColor=#ffe6cc;strokeColor=#d79b00;" vertex="1" parent="NtMksIk7Ne774pOVK3xy-37">
          <mxGeometry x="240" y="440" width="160" height="60" as="geometry" />
        </mxCell>
        <mxCell id="NtMksIk7Ne774pOVK3xy-49" style="edgeStyle=orthogonalEdgeStyle;rounded=0;orthogonalLoop=1;jettySize=auto;html=1;exitX=0.5;exitY=1;exitDx=0;exitDy=0;entryX=0.5;entryY=0;entryDx=0;entryDy=0;fontColor=#00FF00;" edge="1" parent="NtMksIk7Ne774pOVK3xy-37" source="NtMksIk7Ne774pOVK3xy-45" target="NtMksIk7Ne774pOVK3xy-46">
          <mxGeometry relative="1" as="geometry" />
        </mxCell>
        <mxCell id="NtMksIk7Ne774pOVK3xy-45" value="Route File:&lt;br&gt;registeremp.js with a POST request to API" style="rounded=0;whiteSpace=wrap;html=1;fillColor=#ffe6cc;strokeColor=#d79b00;" vertex="1" parent="NtMksIk7Ne774pOVK3xy-37">
          <mxGeometry x="460" y="440" width="170" height="60" as="geometry" />
        </mxCell>
        <mxCell id="NtMksIk7Ne774pOVK3xy-46" value="View:&lt;br&gt;register.ejs&lt;br&gt;*with label messages sent" style="rounded=0;whiteSpace=wrap;html=1;fillColor=#ffe6cc;strokeColor=#d79b00;" vertex="1" parent="NtMksIk7Ne774pOVK3xy-37">
          <mxGeometry x="460" y="550" width="170" height="60" as="geometry" />
        </mxCell>
        <mxCell id="NtMksIk7Ne774pOVK3xy-47" style="edgeStyle=orthogonalEdgeStyle;rounded=0;orthogonalLoop=1;jettySize=auto;html=1;exitX=1;exitY=0.5;exitDx=0;exitDy=0;fontColor=#00FF00;fillColor=#fff2cc;strokeColor=#d6b656;" edge="1" parent="NtMksIk7Ne774pOVK3xy-37">
          <mxGeometry relative="1" as="geometry">
            <mxPoint x="240" y="470" as="targetPoint" />
            <mxPoint x="160" y="425" as="sourcePoint" />
          </mxGeometry>
        </mxCell>
        <mxCell id="NtMksIk7Ne774pOVK3xy-48" style="edgeStyle=orthogonalEdgeStyle;rounded=0;orthogonalLoop=1;jettySize=auto;html=1;exitX=1;exitY=0.5;exitDx=0;exitDy=0;fontColor=#00FF00;" edge="1" parent="NtMksIk7Ne774pOVK3xy-37">
          <mxGeometry relative="1" as="geometry">
            <mxPoint x="460" y="470" as="targetPoint" />
            <mxPoint x="400" y="470" as="sourcePoint" />
          </mxGeometry>
        </mxCell>
      </root>
    </mxGraphModel>
  </diagram>
</mxfile>
